<svg width="541" height="541" viewBox="0 0 541 541" fill="none" xmlns="http://www.w3.org/2000/svg">
<rect width="541" height="541" fill="black"/>
<path d="M259.325 421.498V436H141.771V421.498H153.856C164.403 421.498 172.313 419.594 177.587 415.785C182.86 411.83 185.497 402.235 185.497 387.001V163.759C185.497 148.817 182.86 139.296 177.587 135.194C172.313 131.093 164.403 129.042 153.856 129.042H141.771V114.76H249.218C287.743 114.76 315.868 121.498 333.593 134.975C351.464 148.451 360.399 169.911 360.399 199.354C360.399 215.907 357.177 229.97 350.731 241.542C344.286 252.968 335.863 262.27 325.463 269.447C315.209 276.625 304.076 282.045 292.064 285.707L356.444 384.145C364.794 396.742 372.558 405.824 379.735 411.391C387.06 416.957 395.336 419.74 404.564 419.74H407.641V436H403.246C387.426 436 375.341 434.828 366.991 432.484C358.495 430.287 351.391 426.259 345.678 420.399C339.965 414.54 333.666 406.264 326.781 395.57L261.962 292.958H216.039V387.001C216.039 402.235 218.749 411.83 224.169 415.785C229.589 419.594 237.353 421.498 247.46 421.498H259.325ZM250.756 131.898H216.039V276.259H250.316C276.977 276.259 296.679 269.74 309.423 256.703C322.167 243.666 328.539 224.843 328.539 200.233C328.539 176.796 322.899 159.584 311.62 148.598C300.341 137.465 280.053 131.898 250.756 131.898Z" fill="white"/>
<rect x="52.5" y="52.5" width="436" height="436" stroke="white" stroke-width="15"/>
</svg>
