<svg width="1303" height="1303" viewBox="0 0 1303 1303" fill="none" xmlns="http://www.w3.org/2000/svg">
<g filter="url(#filter0_d_419_64)">
<circle cx="651.5" cy="647.5" r="647.5" fill="#5E8BFF"/>
<path d="M601.275 698.628V843.972C595.723 845.486 586.892 847 574.78 848.514C563.172 850.028 551.565 850.785 539.958 850.785C528.35 850.785 518.005 849.776 508.921 847.757C500.341 846.243 493.024 843.215 486.968 838.673C481.416 834.131 477.127 827.823 474.099 819.748C471.071 811.673 469.557 801.075 469.557 787.954V431.407C469.557 420.809 472.332 412.734 477.884 407.183C483.94 401.127 492.014 396.333 502.108 392.8C519.266 386.744 539.201 382.454 561.911 379.931C584.621 376.903 608.845 375.389 634.583 375.389C704.227 375.389 756.712 390.024 792.039 419.295C827.365 448.566 845.029 488.182 845.029 538.144C845.029 569.433 836.954 596.181 820.805 618.386C804.655 640.591 785.478 657.75 763.273 669.862C781.441 694.591 799.356 717.805 817.02 739.506C834.683 761.207 848.561 780.889 858.655 798.552C853.608 816.215 844.272 829.841 830.646 839.43C817.524 848.514 802.637 853.056 785.983 853.056C774.88 853.056 765.291 851.794 757.217 849.271C749.142 846.748 742.077 843.215 736.021 838.673C729.965 834.131 724.413 828.58 719.367 822.019C714.32 815.458 709.526 808.393 704.984 800.823L641.396 698.628H601.275ZM648.966 597.947C668.143 597.947 683.283 593.153 694.386 583.564C705.488 573.471 711.04 558.835 711.04 539.658C711.04 520.481 704.731 506.098 692.115 496.509C680.003 486.416 660.573 481.369 633.826 481.369C626.256 481.369 620.2 481.621 615.658 482.126C611.116 482.631 606.069 483.388 600.518 484.397V597.947H648.966Z" fill="white"/>
</g>
<defs>
<filter id="filter0_d_419_64" x="0" y="0" width="1303" height="1303" filterUnits="userSpaceOnUse" color-interpolation-filters="sRGB">
<feFlood flood-opacity="0" result="BackgroundImageFix"/>
<feColorMatrix in="SourceAlpha" type="matrix" values="0 0 0 0 0 0 0 0 0 0 0 0 0 0 0 0 0 0 127 0" result="hardAlpha"/>
<feOffset dy="4"/>
<feGaussianBlur stdDeviation="2"/>
<feComposite in2="hardAlpha" operator="out"/>
<feColorMatrix type="matrix" values="0 0 0 0 0 0 0 0 0 0 0 0 0 0 0 0 0 0 0.25 0"/>
<feBlend mode="normal" in2="BackgroundImageFix" result="effect1_dropShadow_419_64"/>
<feBlend mode="normal" in="SourceGraphic" in2="effect1_dropShadow_419_64" result="shape"/>
</filter>
</defs>
</svg>
